{"title":"Little Deaths 2011 1080p BRRip Xvid AC3 LKRG","uid":10390912,"size":1516384053,"categoryP":"video","categoryS":"hd___movies","magnet":"?xt=urn:btih:8a6897e2caf7cecfcbeb08468a9a57c9a9601fe8&amp;dn=Little+Deaths+2011+1080p+BRRip+Xvid+AC3+LKRG&amp;tr=udp%3A%2F%2Ftracker.openbittorrent.com%3A80&amp;tr=udp%3A%2F%2Fopen.demonii.com%3A1337&amp;tr=udp%3A%2F%2Ftracker.coppersurfer.tk%3A6969&amp;tr=udp%3A%2F%2Fexodus.desync.com%3A6969","seeders":18,"leechers":3,"uploader":".BONE.","files":2,"time":1403195670,"description":"\nPLOT\n\nComposed of three disturbingly sensual and terrifying short narratives,unified\nby the twin themes of sex and death.\n\n\n\nGeneral Info\n\nSource ..........: little.deaths.2011.1080p.bluray.x264-brmp Thanks m8\nRuntime ..........: 1h 34mn\nFile Size ........: 1.41 GB\nResolution .......: 1920 x 816 &lt;a href=&quot;\nhttp://www.imdb.com/title/tt1614456/&quot; rel=&quot;nofollow&quot; target=&quot;_NEW&quot;&gt;\nhttp://www.imdb.com/title/tt1614456/&lt;/a&gt;\nLanguage .........: English\nSubtitles ........: None\nComplete name : Little Deaths 2011 1080p BRRip Xvid AC3 LKRGLDeaths_LKRG.avi\nFormat : AVI\nFormat/Info : Audio Video Interleave\nFile size : 1.41 GiB\nDuration : 1h 34mn\nOverall bit rate : 2 142 Kbps\nWriting application : VirtualDubMod 1.5.10.2 (build 2540/release)\nWriting library : VirtualDubMod build 2540/release\nVideo\nID : 0\nFormat : MPEG-4 Visual\nFormat profile : Advanced Simple@L5\nFormat settings, BVOP : 2\nFormat settings, QPel : No\nFormat settings, GMC : No warppoints\nFormat settings, Matrix : Default (H.263)\nMuxing mode : Packed bitstream\nCodec ID : XVID\nCodec ID/Hint : XviD\nDuration : 1h 34mn\nBit rate : 1 684 Kbps\nWidth : 1 920 pixels\nHeight : 816 pixels\nDisplay aspect ratio : 2.35:1\nFrame rate : 24.000 fps\nColor space : YUV\nChroma subsampling : 4:2:0\nBit depth : 8 bits\nScan type : Progressive\nCompression mode : Lossy\nBits/(Pixel*Frame) : 0.045\nStream size : 1.11 GiB (79%)\nWriting library : XviD 1.2.1 (UTC 2008-12-04)\nAudio\nID : 1\nFormat : AC-3\nFormat/Info : Audio Coding 3\nMode extension : CM (complete main)\nFormat settings, Endianness : Big\nCodec ID : 2000\nDuration : 1h 34mn\nBit rate mode : Constant\nBit rate : 448 Kbps\nChannel(s) : 6 channels\nChannel positions : Front: L C R, Side: L R, LFE\nSampling rate : 48.0 KHz\nBit depth : 16 bits\nCompression mode : Lossy\nStream size : 302 MiB (21%)\nAlignment : Split accross interleaves\nInterleave, duration : 42 ms (1.00 video frame)\nInterleave, preload duration : 500 ms","torrent":{"xt":"urn:btih:8a6897e2caf7cecfcbeb08468a9a57c9a9601fe8","amp;dn":"Little+Deaths+2011+1080p+BRRip+Xvid+AC3+LKRG","amp;tr":["udp%3A%2F%2Ftracker.openbittorrent.com%3A80","udp%3A%2F%2Fopen.demonii.com%3A1337","udp%3A%2F%2Ftracker.coppersurfer.tk%3A6969","udp%3A%2F%2Fexodus.desync.com%3A6969"],"infoHash":"8a6897e2caf7cecfcbeb08468a9a57c9a9601fe8","infoHashBuffer":{"type":"Buffer","data":[138,104,151,226,202,247,206,207,203,235,8,70,138,154,87,201,169,96,31,232]},"announce":[],"urlList":[]}}